<svg width="512" height="512" viewBox="0 0 512 512" fill="none" xmlns="http://www.w3.org/2000/svg">
  <!-- PropertyDrop Logo - Indigo color scheme -->
  <path d="M256 32C168.8 32 98 102.8 98 190c0 24.6 5.6 47.9 15.6 68.6L256 480l142.4-221.4c10-20.7 15.6-44 15.6-68.6 0-87.2-70.8-158-158-158zm0 220c-34.2 0-62-27.8-62-62s27.8-62 62-62 62 27.8 62 62-27.8 62-62 62z" fill="#4f46e5"/>
  <!-- Inner P shape -->
  <path d="M220 140h50c22.1 0 40 17.9 40 40s-17.9 40-40 40h-30v32h-20V140zm20 20v40h30c11 0 20-9 20-20s-9-20-20-20h-30z" fill="white"/>
</svg>

